%TF.GenerationSoftware,KiCad,Pcbnew,7.0.10*%
%TF.CreationDate,2024-01-23T18:03:39-08:00*%
%TF.ProjectId,514final,35313466-696e-4616-9c2e-6b696361645f,rev?*%
%TF.SameCoordinates,Original*%
%TF.FileFunction,Legend,Bot*%
%TF.FilePolarity,Positive*%
%FSLAX46Y46*%
G04 Gerber Fmt 4.6, Leading zero omitted, Abs format (unit mm)*
G04 Created by KiCad (PCBNEW 7.0.10) date 2024-01-23 18:03:39*
%MOMM*%
%LPD*%
G01*
G04 APERTURE LIST*
%ADD10C,0.100000*%
G04 APERTURE END LIST*
D10*
X93519523Y-80467419D02*
X93519523Y-79467419D01*
X93519523Y-79467419D02*
X93186190Y-80181704D01*
X93186190Y-80181704D02*
X92852857Y-79467419D01*
X92852857Y-79467419D02*
X92852857Y-80467419D01*
X91852857Y-80467419D02*
X92424285Y-80467419D01*
X92138571Y-80467419D02*
X92138571Y-79467419D01*
X92138571Y-79467419D02*
X92233809Y-79610276D01*
X92233809Y-79610276D02*
X92329047Y-79705514D01*
X92329047Y-79705514D02*
X92424285Y-79753133D01*
X140242580Y-92201904D02*
X139433057Y-92201904D01*
X139433057Y-92201904D02*
X139337819Y-92154285D01*
X139337819Y-92154285D02*
X139290200Y-92106666D01*
X139290200Y-92106666D02*
X139242580Y-92011428D01*
X139242580Y-92011428D02*
X139242580Y-91820952D01*
X139242580Y-91820952D02*
X139290200Y-91725714D01*
X139290200Y-91725714D02*
X139337819Y-91678095D01*
X139337819Y-91678095D02*
X139433057Y-91630476D01*
X139433057Y-91630476D02*
X140242580Y-91630476D01*
X139242580Y-90630476D02*
X139242580Y-91201904D01*
X139242580Y-90916190D02*
X140242580Y-90916190D01*
X140242580Y-90916190D02*
X140099723Y-91011428D01*
X140099723Y-91011428D02*
X140004485Y-91106666D01*
X140004485Y-91106666D02*
X139956866Y-91201904D01*
%TO.C,U1*%
X133350000Y-90170000D02*
X137160000Y-90170000D01*
X133350000Y-97790000D02*
X133350000Y-90170000D01*
X137160000Y-97790000D02*
X133350000Y-97790000D01*
%TD*%
M02*
