%TF.GenerationSoftware,KiCad,Pcbnew,7.0.10*%
%TF.CreationDate,2024-01-23T18:03:39-08:00*%
%TF.ProjectId,514final,35313466-696e-4616-9c2e-6b696361645f,rev?*%
%TF.SameCoordinates,Original*%
%TF.FileFunction,Copper,L1,Top*%
%TF.FilePolarity,Positive*%
%FSLAX46Y46*%
G04 Gerber Fmt 4.6, Leading zero omitted, Abs format (unit mm)*
G04 Created by KiCad (PCBNEW 7.0.10) date 2024-01-23 18:03:39*
%MOMM*%
%LPD*%
G01*
G04 APERTURE LIST*
G04 Aperture macros list*
%AMRoundRect*
0 Rectangle with rounded corners*
0 $1 Rounding radius*
0 $2 $3 $4 $5 $6 $7 $8 $9 X,Y pos of 4 corners*
0 Add a 4 corners polygon primitive as box body*
4,1,4,$2,$3,$4,$5,$6,$7,$8,$9,$2,$3,0*
0 Add four circle primitives for the rounded corners*
1,1,$1+$1,$2,$3*
1,1,$1+$1,$4,$5*
1,1,$1+$1,$6,$7*
1,1,$1+$1,$8,$9*
0 Add four rect primitives between the rounded corners*
20,1,$1+$1,$2,$3,$4,$5,0*
20,1,$1+$1,$4,$5,$6,$7,0*
20,1,$1+$1,$6,$7,$8,$9,0*
20,1,$1+$1,$8,$9,$2,$3,0*%
G04 Aperture macros list end*
%TA.AperFunction,SMDPad,CuDef*%
%ADD10RoundRect,0.250000X0.350000X0.450000X-0.350000X0.450000X-0.350000X-0.450000X0.350000X-0.450000X0*%
%TD*%
%TA.AperFunction,ComponentPad*%
%ADD11O,1.950000X1.700000*%
%TD*%
%TA.AperFunction,ComponentPad*%
%ADD12RoundRect,0.250000X0.725000X-0.600000X0.725000X0.600000X-0.725000X0.600000X-0.725000X-0.600000X0*%
%TD*%
%TA.AperFunction,ComponentPad*%
%ADD13C,1.700000*%
%TD*%
%TA.AperFunction,SMDPad,CuDef*%
%ADD14RoundRect,0.250000X-0.325000X-0.450000X0.325000X-0.450000X0.325000X0.450000X-0.325000X0.450000X0*%
%TD*%
%TA.AperFunction,ComponentPad*%
%ADD15O,1.778000X3.556000*%
%TD*%
%TA.AperFunction,Conductor*%
%ADD16C,0.254000*%
%TD*%
G04 APERTURE END LIST*
D10*
%TO.P,R1,2*%
%TO.N,Net-(D1-A)*%
X100600000Y-119380000D03*
%TO.P,R1,1*%
%TO.N,Net-(SW1-C)*%
X102600000Y-119380000D03*
%TD*%
D11*
%TO.P,SW1,3,C*%
%TO.N,Net-(SW1-C)*%
X114300000Y-119460000D03*
%TO.P,SW1,2,B*%
%TO.N,VCC*%
X114300000Y-121960000D03*
D12*
%TO.P,SW1,1,A*%
%TO.N,unconnected-(SW1-A-Pad1)*%
X114300000Y-124460000D03*
%TD*%
D13*
%TO.P,M1,1*%
%TO.N,Net-(U1-GPIO1_A0_D0)*%
X80010000Y-95250000D03*
%TO.P,M1,2,-*%
%TO.N,Net-(M1--)*%
X80010000Y-102870000D03*
%TO.P,M1,3*%
%TO.N,Net-(U1-GPIO3_A2_D2)*%
X102870000Y-102870000D03*
%TO.P,M1,4*%
%TO.N,Net-(U1-GPIO4_A3_D3)*%
X102870000Y-95250000D03*
%TD*%
D14*
%TO.P,D1,1,K*%
%TO.N,Net-(D1-K)*%
X91930000Y-119380000D03*
%TO.P,D1,2,A*%
%TO.N,Net-(D1-A)*%
X93980000Y-119380000D03*
%TD*%
D15*
%TO.P,U1,14,GPIO44_D7_RX*%
%TO.N,unconnected-(U1-GPIO44_D7_RX-Pad14)*%
X119380000Y-85598000D03*
%TO.P,U1,13,GPIO7_A8_D8_SCK*%
%TO.N,unconnected-(U1-GPIO7_A8_D8_SCK-Pad13)*%
X121920000Y-85598000D03*
%TO.P,U1,12,GPIO8_A9_D9_CIPO*%
%TO.N,unconnected-(U1-GPIO8_A9_D9_CIPO-Pad12)*%
X124460000Y-85598000D03*
%TO.P,U1,11,GPIO9_A10_D10_COPI*%
%TO.N,unconnected-(U1-GPIO9_A10_D10_COPI-Pad11)*%
X127000000Y-85598000D03*
%TO.P,U1,10,3V3*%
%TO.N,unconnected-(U1-3V3-Pad10)*%
X129540000Y-85598000D03*
%TO.P,U1,9,GND*%
%TO.N,Net-(D1-K)*%
X132080000Y-85598000D03*
%TO.P,U1,8,5V*%
%TO.N,Net-(SW1-C)*%
X134620000Y-85598000D03*
%TO.P,U1,7,GPIO43_TX_D6*%
%TO.N,unconnected-(U1-GPIO43_TX_D6-Pad7)*%
X119380000Y-102362000D03*
%TO.P,U1,6,GPIO6_A5_D5_SCL*%
%TO.N,unconnected-(U1-GPIO6_A5_D5_SCL-Pad6)*%
X121920000Y-102362000D03*
%TO.P,U1,5,GPIO4_A3_D3_SDA*%
%TO.N,unconnected-(U1-GPIO4_A3_D3_SDA-Pad5)*%
X124460000Y-102362000D03*
%TO.P,U1,4,GPIO4_A3_D3*%
%TO.N,Net-(U1-GPIO4_A3_D3)*%
X127000000Y-102362000D03*
%TO.P,U1,3,GPIO3_A2_D2*%
%TO.N,Net-(U1-GPIO3_A2_D2)*%
X129540000Y-102362000D03*
%TO.P,U1,2,GPIO2_A1_D1*%
%TO.N,Net-(M1--)*%
X132080000Y-102362000D03*
%TO.P,U1,1,GPIO1_A0_D0*%
%TO.N,Net-(U1-GPIO1_A0_D0)*%
X134620000Y-102362000D03*
%TD*%
D16*
%TO.N,Net-(SW1-C)*%
X114300000Y-119460000D02*
X131873000Y-119460000D01*
X137033000Y-114300000D02*
X137033000Y-88773000D01*
X137033000Y-88773000D02*
X134620000Y-86360000D01*
X131873000Y-119460000D02*
X137033000Y-114300000D01*
%TO.N,Net-(D1-K)*%
X81153000Y-81407000D02*
X128034051Y-81407000D01*
X66040000Y-96520000D02*
X81153000Y-81407000D01*
X66040000Y-111760000D02*
X66040000Y-96520000D01*
X73660000Y-119380000D02*
X66040000Y-111760000D01*
X132080000Y-85452949D02*
X132080000Y-86360000D01*
X128034051Y-81407000D02*
X132080000Y-85452949D01*
X91930000Y-119380000D02*
X73660000Y-119380000D01*
%TO.N,Net-(SW1-C)*%
X134620000Y-86360000D02*
X134620000Y-86487000D01*
X102600000Y-119380000D02*
X114220000Y-119380000D01*
X114220000Y-119380000D02*
X114300000Y-119460000D01*
%TO.N,Net-(D1-A)*%
X93980000Y-119380000D02*
X100600000Y-119380000D01*
%TO.N,Net-(U1-GPIO3_A2_D2)*%
X102870000Y-102870000D02*
X106680000Y-106680000D01*
X106680000Y-106680000D02*
X127000000Y-106680000D01*
X127000000Y-106680000D02*
X129540000Y-104140000D01*
X129540000Y-104140000D02*
X129540000Y-101600000D01*
%TO.N,Net-(U1-GPIO4_A3_D3)*%
X102870000Y-95250000D02*
X120650000Y-95250000D01*
X120650000Y-95250000D02*
X127000000Y-101600000D01*
%TO.N,Net-(M1--)*%
X88900000Y-93980000D02*
X129540000Y-93980000D01*
X132080000Y-96520000D02*
X132080000Y-101600000D01*
X80010000Y-102870000D02*
X88900000Y-93980000D01*
X129540000Y-93980000D02*
X132080000Y-96520000D01*
%TO.N,Net-(U1-GPIO1_A0_D0)*%
X80010000Y-95250000D02*
X83820000Y-91440000D01*
X83820000Y-91440000D02*
X132080000Y-91440000D01*
X132080000Y-91440000D02*
X134620000Y-93980000D01*
X134620000Y-93980000D02*
X134620000Y-101600000D01*
%TD*%
M02*
