%TF.GenerationSoftware,KiCad,Pcbnew,7.0.10*%
%TF.CreationDate,2024-02-04T14:41:23-08:00*%
%TF.ProjectId,514final,35313466-696e-4616-9c2e-6b696361645f,rev?*%
%TF.SameCoordinates,Original*%
%TF.FileFunction,Copper,L1,Top*%
%TF.FilePolarity,Positive*%
%FSLAX46Y46*%
G04 Gerber Fmt 4.6, Leading zero omitted, Abs format (unit mm)*
G04 Created by KiCad (PCBNEW 7.0.10) date 2024-02-04 14:41:23*
%MOMM*%
%LPD*%
G01*
G04 APERTURE LIST*
G04 Aperture macros list*
%AMRoundRect*
0 Rectangle with rounded corners*
0 $1 Rounding radius*
0 $2 $3 $4 $5 $6 $7 $8 $9 X,Y pos of 4 corners*
0 Add a 4 corners polygon primitive as box body*
4,1,4,$2,$3,$4,$5,$6,$7,$8,$9,$2,$3,0*
0 Add four circle primitives for the rounded corners*
1,1,$1+$1,$2,$3*
1,1,$1+$1,$4,$5*
1,1,$1+$1,$6,$7*
1,1,$1+$1,$8,$9*
0 Add four rect primitives between the rounded corners*
20,1,$1+$1,$2,$3,$4,$5,0*
20,1,$1+$1,$4,$5,$6,$7,0*
20,1,$1+$1,$6,$7,$8,$9,0*
20,1,$1+$1,$8,$9,$2,$3,0*%
G04 Aperture macros list end*
%TA.AperFunction,ComponentPad*%
%ADD10O,1.700000X1.950000*%
%TD*%
%TA.AperFunction,ComponentPad*%
%ADD11RoundRect,0.250000X-0.600000X-0.725000X0.600000X-0.725000X0.600000X0.725000X-0.600000X0.725000X0*%
%TD*%
%TA.AperFunction,SMDPad,CuDef*%
%ADD12RoundRect,0.250000X-0.350000X-0.450000X0.350000X-0.450000X0.350000X0.450000X-0.350000X0.450000X0*%
%TD*%
%TA.AperFunction,ComponentPad*%
%ADD13C,1.800000*%
%TD*%
%TA.AperFunction,ComponentPad*%
%ADD14RoundRect,0.450000X0.450000X0.450000X-0.450000X0.450000X-0.450000X-0.450000X0.450000X-0.450000X0*%
%TD*%
%TA.AperFunction,ComponentPad*%
%ADD15RoundRect,0.250001X1.099999X-1.099999X1.099999X1.099999X-1.099999X1.099999X-1.099999X-1.099999X0*%
%TD*%
%TA.AperFunction,ComponentPad*%
%ADD16C,2.700000*%
%TD*%
%TA.AperFunction,ComponentPad*%
%ADD17C,1.700000*%
%TD*%
%TA.AperFunction,ComponentPad*%
%ADD18O,1.778000X3.556000*%
%TD*%
%TA.AperFunction,Conductor*%
%ADD19C,0.254000*%
%TD*%
G04 APERTURE END LIST*
D10*
%TO.P,SW1,3,C*%
%TO.N,Net-(SW1-C)*%
X242530000Y-140970000D03*
%TO.P,SW1,2,B*%
%TO.N,Net-(BT1-+)*%
X240030000Y-140970000D03*
D11*
%TO.P,SW1,1,A*%
%TO.N,unconnected-(SW1-A-Pad1)*%
X237530000Y-140970000D03*
%TD*%
D12*
%TO.P,R1,1*%
%TO.N,Net-(D1-BA)*%
X220250000Y-107950000D03*
%TO.P,R1,2*%
%TO.N,Net-(U1-GPIO8_A9_D9_CIPO)*%
X222250000Y-107950000D03*
%TD*%
%TO.P,R3,2*%
%TO.N,Net-(U1-GPIO7_A8_D8_SCK)*%
X217170000Y-102870000D03*
%TO.P,R3,1*%
%TO.N,Net-(D1-RA)*%
X215170000Y-102870000D03*
%TD*%
%TO.P,R2,2*%
%TO.N,Net-(U1-GPIO9_A10_D10_COPI)*%
X212090000Y-97790000D03*
%TO.P,R2,1*%
%TO.N,Net-(D1-GA)*%
X210090000Y-97790000D03*
%TD*%
D13*
%TO.P,D1,4,K*%
%TO.N,Net-(BT1--)*%
X184404000Y-106426000D03*
%TO.P,D1,3,BA*%
%TO.N,Net-(D1-BA)*%
X185928000Y-107950000D03*
%TO.P,D1,2,GA*%
%TO.N,Net-(D1-GA)*%
X187452000Y-106426000D03*
D14*
%TO.P,D1,1,RA*%
%TO.N,Net-(D1-RA)*%
X189230000Y-107950000D03*
%TD*%
D15*
%TO.P,BT1,1,+*%
%TO.N,Net-(BT1-+)*%
X184150000Y-140970000D03*
D16*
%TO.P,BT1,2,-*%
%TO.N,Net-(BT1--)*%
X184150000Y-135970000D03*
%TD*%
D17*
%TO.P,M1,1*%
%TO.N,Net-(U1-GPIO1_A0_D0)*%
X194310000Y-118110000D03*
%TO.P,M1,2,-*%
%TO.N,Net-(M1--)*%
X194310000Y-125730000D03*
%TO.P,M1,3*%
%TO.N,Net-(U1-GPIO3_A2_D2)*%
X217170000Y-125730000D03*
%TO.P,M1,4*%
%TO.N,Net-(U1-GPIO4_A3_D3)*%
X217170000Y-118110000D03*
%TD*%
D18*
%TO.P,U1,1,GPIO1_A0_D0*%
%TO.N,Net-(U1-GPIO1_A0_D0)*%
X248920000Y-125222000D03*
%TO.P,U1,2,GPIO2_A1_D1*%
%TO.N,Net-(M1--)*%
X246380000Y-125222000D03*
%TO.P,U1,3,GPIO3_A2_D2*%
%TO.N,Net-(U1-GPIO3_A2_D2)*%
X243840000Y-125222000D03*
%TO.P,U1,4,GPIO4_A3_D3*%
%TO.N,Net-(U1-GPIO4_A3_D3)*%
X241300000Y-125222000D03*
%TO.P,U1,5,GPIO4_A3_D3_SDA*%
%TO.N,unconnected-(U1-GPIO4_A3_D3_SDA-Pad5)*%
X238760000Y-125222000D03*
%TO.P,U1,6,GPIO6_A5_D5_SCL*%
%TO.N,unconnected-(U1-GPIO6_A5_D5_SCL-Pad6)*%
X236220000Y-125222000D03*
%TO.P,U1,7,GPIO43_TX_D6*%
%TO.N,unconnected-(U1-GPIO43_TX_D6-Pad7)*%
X233680000Y-125222000D03*
%TO.P,U1,8,5V*%
%TO.N,Net-(SW1-C)*%
X248920000Y-108458000D03*
%TO.P,U1,9,GND*%
%TO.N,Net-(BT1--)*%
X246380000Y-108458000D03*
%TO.P,U1,10,3V3*%
%TO.N,unconnected-(U1-3V3-Pad10)*%
X243840000Y-108458000D03*
%TO.P,U1,11,GPIO9_A10_D10_COPI*%
%TO.N,Net-(U1-GPIO9_A10_D10_COPI)*%
X241300000Y-108458000D03*
%TO.P,U1,12,GPIO8_A9_D9_CIPO*%
%TO.N,Net-(U1-GPIO8_A9_D9_CIPO)*%
X238760000Y-108458000D03*
%TO.P,U1,13,GPIO7_A8_D8_SCK*%
%TO.N,Net-(U1-GPIO7_A8_D8_SCK)*%
X236220000Y-108458000D03*
%TO.P,U1,14,GPIO44_D7_RX*%
%TO.N,unconnected-(U1-GPIO44_D7_RX-Pad14)*%
X233680000Y-108458000D03*
%TD*%
D19*
%TO.N,Net-(M1--)*%
X203200000Y-116840000D02*
X243840000Y-116840000D01*
X246380000Y-119380000D02*
X246380000Y-124460000D01*
X243840000Y-116840000D02*
X246380000Y-119380000D01*
X194310000Y-125730000D02*
X203200000Y-116840000D01*
%TO.N,Net-(BT1-+)*%
X238674000Y-139614000D02*
X240030000Y-140970000D01*
X185506000Y-139614000D02*
X238674000Y-139614000D01*
X184150000Y-140970000D02*
X185506000Y-139614000D01*
%TO.N,Net-(U1-GPIO7_A8_D8_SCK)*%
X217170000Y-102870000D02*
X230777051Y-102870000D01*
X230777051Y-102870000D02*
X236220000Y-108312949D01*
X236220000Y-108312949D02*
X236220000Y-109220000D01*
%TO.N,Net-(D1-RA)*%
X215170000Y-102870000D02*
X194310000Y-102870000D01*
X194310000Y-102870000D02*
X189230000Y-107950000D01*
%TO.N,Net-(U1-GPIO8_A9_D9_CIPO)*%
X222250000Y-107950000D02*
X224917000Y-110617000D01*
X224917000Y-110617000D02*
X237363000Y-110617000D01*
X237363000Y-110617000D02*
X238760000Y-109220000D01*
%TO.N,Net-(D1-BA)*%
X185928000Y-107950000D02*
X187209000Y-109231000D01*
X218969000Y-109231000D02*
X220250000Y-107950000D01*
X187209000Y-109231000D02*
X218969000Y-109231000D01*
%TO.N,Net-(BT1--)*%
X195580000Y-95250000D02*
X234950000Y-95250000D01*
X184404000Y-106426000D02*
X195580000Y-95250000D01*
X234950000Y-95250000D02*
X246380000Y-106680000D01*
X246380000Y-106680000D02*
X246380000Y-109220000D01*
X184150000Y-135970000D02*
X184150000Y-106680000D01*
X184150000Y-106680000D02*
X184404000Y-106426000D01*
%TO.N,Net-(U1-GPIO9_A10_D10_COPI)*%
X212090000Y-97790000D02*
X230777051Y-97790000D01*
X230777051Y-97790000D02*
X241300000Y-108312949D01*
X241300000Y-108312949D02*
X241300000Y-109220000D01*
%TO.N,Net-(D1-GA)*%
X187452000Y-106426000D02*
X196088000Y-97790000D01*
X196088000Y-97790000D02*
X210090000Y-97790000D01*
%TO.N,Net-(SW1-C)*%
X250190000Y-110490000D02*
X250190000Y-133310000D01*
X248920000Y-109220000D02*
X250190000Y-110490000D01*
X250190000Y-133310000D02*
X242530000Y-140970000D01*
%TO.N,Net-(U1-GPIO1_A0_D0)*%
X246380000Y-114300000D02*
X248920000Y-116840000D01*
X198120000Y-114300000D02*
X246380000Y-114300000D01*
X194310000Y-118110000D02*
X198120000Y-114300000D01*
X248920000Y-116840000D02*
X248920000Y-124460000D01*
%TO.N,Net-(U1-GPIO3_A2_D2)*%
X243840000Y-127000000D02*
X243840000Y-124460000D01*
X217170000Y-125730000D02*
X220980000Y-129540000D01*
X220980000Y-129540000D02*
X241300000Y-129540000D01*
X241300000Y-129540000D02*
X243840000Y-127000000D01*
%TO.N,Net-(U1-GPIO4_A3_D3)*%
X217170000Y-118110000D02*
X234950000Y-118110000D01*
X234950000Y-118110000D02*
X241300000Y-124460000D01*
%TO.N,Net-(SW1-C)*%
X248920000Y-109220000D02*
X248920000Y-109347000D01*
%TD*%
M02*
