%TF.GenerationSoftware,KiCad,Pcbnew,7.0.10*%
%TF.CreationDate,2024-02-04T14:41:23-08:00*%
%TF.ProjectId,514final,35313466-696e-4616-9c2e-6b696361645f,rev?*%
%TF.SameCoordinates,Original*%
%TF.FileFunction,Legend,Top*%
%TF.FilePolarity,Positive*%
%FSLAX46Y46*%
G04 Gerber Fmt 4.6, Leading zero omitted, Abs format (unit mm)*
G04 Created by KiCad (PCBNEW 7.0.10) date 2024-02-04 14:41:23*
%MOMM*%
%LPD*%
G01*
G04 APERTURE LIST*
%ADD10C,0.150000*%
%ADD11C,0.120000*%
G04 APERTURE END LIST*
D10*
X223158207Y-134149819D02*
X222824874Y-133673628D01*
X222586779Y-134149819D02*
X222586779Y-133149819D01*
X222586779Y-133149819D02*
X222967731Y-133149819D01*
X222967731Y-133149819D02*
X223062969Y-133197438D01*
X223062969Y-133197438D02*
X223110588Y-133245057D01*
X223110588Y-133245057D02*
X223158207Y-133340295D01*
X223158207Y-133340295D02*
X223158207Y-133483152D01*
X223158207Y-133483152D02*
X223110588Y-133578390D01*
X223110588Y-133578390D02*
X223062969Y-133626009D01*
X223062969Y-133626009D02*
X222967731Y-133673628D01*
X222967731Y-133673628D02*
X222586779Y-133673628D01*
X224015350Y-133483152D02*
X224015350Y-134149819D01*
X223586779Y-133483152D02*
X223586779Y-134006961D01*
X223586779Y-134006961D02*
X223634398Y-134102200D01*
X223634398Y-134102200D02*
X223729636Y-134149819D01*
X223729636Y-134149819D02*
X223872493Y-134149819D01*
X223872493Y-134149819D02*
X223967731Y-134102200D01*
X223967731Y-134102200D02*
X224015350Y-134054580D01*
X224491541Y-134149819D02*
X224491541Y-133483152D01*
X224491541Y-133149819D02*
X224443922Y-133197438D01*
X224443922Y-133197438D02*
X224491541Y-133245057D01*
X224491541Y-133245057D02*
X224539160Y-133197438D01*
X224539160Y-133197438D02*
X224491541Y-133149819D01*
X224491541Y-133149819D02*
X224491541Y-133245057D01*
X225396302Y-133483152D02*
X225396302Y-134483152D01*
X225396302Y-134102200D02*
X225301064Y-134149819D01*
X225301064Y-134149819D02*
X225110588Y-134149819D01*
X225110588Y-134149819D02*
X225015350Y-134102200D01*
X225015350Y-134102200D02*
X224967731Y-134054580D01*
X224967731Y-134054580D02*
X224920112Y-133959342D01*
X224920112Y-133959342D02*
X224920112Y-133673628D01*
X224920112Y-133673628D02*
X224967731Y-133578390D01*
X224967731Y-133578390D02*
X225015350Y-133530771D01*
X225015350Y-133530771D02*
X225110588Y-133483152D01*
X225110588Y-133483152D02*
X225301064Y-133483152D01*
X225301064Y-133483152D02*
X225396302Y-133530771D01*
X225872493Y-134149819D02*
X225872493Y-133483152D01*
X225872493Y-133149819D02*
X225824874Y-133197438D01*
X225824874Y-133197438D02*
X225872493Y-133245057D01*
X225872493Y-133245057D02*
X225920112Y-133197438D01*
X225920112Y-133197438D02*
X225872493Y-133149819D01*
X225872493Y-133149819D02*
X225872493Y-133245057D01*
X226348683Y-133483152D02*
X226348683Y-134149819D01*
X226348683Y-133578390D02*
X226396302Y-133530771D01*
X226396302Y-133530771D02*
X226491540Y-133483152D01*
X226491540Y-133483152D02*
X226634397Y-133483152D01*
X226634397Y-133483152D02*
X226729635Y-133530771D01*
X226729635Y-133530771D02*
X226777254Y-133626009D01*
X226777254Y-133626009D02*
X226777254Y-134149819D01*
X227682016Y-133483152D02*
X227682016Y-134292676D01*
X227682016Y-134292676D02*
X227634397Y-134387914D01*
X227634397Y-134387914D02*
X227586778Y-134435533D01*
X227586778Y-134435533D02*
X227491540Y-134483152D01*
X227491540Y-134483152D02*
X227348683Y-134483152D01*
X227348683Y-134483152D02*
X227253445Y-134435533D01*
X227682016Y-134102200D02*
X227586778Y-134149819D01*
X227586778Y-134149819D02*
X227396302Y-134149819D01*
X227396302Y-134149819D02*
X227301064Y-134102200D01*
X227301064Y-134102200D02*
X227253445Y-134054580D01*
X227253445Y-134054580D02*
X227205826Y-133959342D01*
X227205826Y-133959342D02*
X227205826Y-133673628D01*
X227205826Y-133673628D02*
X227253445Y-133578390D01*
X227253445Y-133578390D02*
X227301064Y-133530771D01*
X227301064Y-133530771D02*
X227396302Y-133483152D01*
X227396302Y-133483152D02*
X227586778Y-133483152D01*
X227586778Y-133483152D02*
X227682016Y-133530771D01*
X228824874Y-133149819D02*
X229062969Y-134149819D01*
X229062969Y-134149819D02*
X229253445Y-133435533D01*
X229253445Y-133435533D02*
X229443921Y-134149819D01*
X229443921Y-134149819D02*
X229682017Y-133149819D01*
X230491540Y-134149819D02*
X230491540Y-133626009D01*
X230491540Y-133626009D02*
X230443921Y-133530771D01*
X230443921Y-133530771D02*
X230348683Y-133483152D01*
X230348683Y-133483152D02*
X230158207Y-133483152D01*
X230158207Y-133483152D02*
X230062969Y-133530771D01*
X230491540Y-134102200D02*
X230396302Y-134149819D01*
X230396302Y-134149819D02*
X230158207Y-134149819D01*
X230158207Y-134149819D02*
X230062969Y-134102200D01*
X230062969Y-134102200D02*
X230015350Y-134006961D01*
X230015350Y-134006961D02*
X230015350Y-133911723D01*
X230015350Y-133911723D02*
X230062969Y-133816485D01*
X230062969Y-133816485D02*
X230158207Y-133768866D01*
X230158207Y-133768866D02*
X230396302Y-133768866D01*
X230396302Y-133768866D02*
X230491540Y-133721247D01*
X230967731Y-133483152D02*
X230967731Y-134149819D01*
X230967731Y-133578390D02*
X231015350Y-133530771D01*
X231015350Y-133530771D02*
X231110588Y-133483152D01*
X231110588Y-133483152D02*
X231253445Y-133483152D01*
X231253445Y-133483152D02*
X231348683Y-133530771D01*
X231348683Y-133530771D02*
X231396302Y-133626009D01*
X231396302Y-133626009D02*
X231396302Y-134149819D01*
X232301064Y-133483152D02*
X232301064Y-134292676D01*
X232301064Y-134292676D02*
X232253445Y-134387914D01*
X232253445Y-134387914D02*
X232205826Y-134435533D01*
X232205826Y-134435533D02*
X232110588Y-134483152D01*
X232110588Y-134483152D02*
X231967731Y-134483152D01*
X231967731Y-134483152D02*
X231872493Y-134435533D01*
X232301064Y-134102200D02*
X232205826Y-134149819D01*
X232205826Y-134149819D02*
X232015350Y-134149819D01*
X232015350Y-134149819D02*
X231920112Y-134102200D01*
X231920112Y-134102200D02*
X231872493Y-134054580D01*
X231872493Y-134054580D02*
X231824874Y-133959342D01*
X231824874Y-133959342D02*
X231824874Y-133673628D01*
X231824874Y-133673628D02*
X231872493Y-133578390D01*
X231872493Y-133578390D02*
X231920112Y-133530771D01*
X231920112Y-133530771D02*
X232015350Y-133483152D01*
X232015350Y-133483152D02*
X232205826Y-133483152D01*
X232205826Y-133483152D02*
X232301064Y-133530771D01*
X222586779Y-135759819D02*
X222586779Y-134759819D01*
X222586779Y-134759819D02*
X222824874Y-134759819D01*
X222824874Y-134759819D02*
X222967731Y-134807438D01*
X222967731Y-134807438D02*
X223062969Y-134902676D01*
X223062969Y-134902676D02*
X223110588Y-134997914D01*
X223110588Y-134997914D02*
X223158207Y-135188390D01*
X223158207Y-135188390D02*
X223158207Y-135331247D01*
X223158207Y-135331247D02*
X223110588Y-135521723D01*
X223110588Y-135521723D02*
X223062969Y-135616961D01*
X223062969Y-135616961D02*
X222967731Y-135712200D01*
X222967731Y-135712200D02*
X222824874Y-135759819D01*
X222824874Y-135759819D02*
X222586779Y-135759819D01*
X223586779Y-135759819D02*
X223586779Y-135093152D01*
X223586779Y-134759819D02*
X223539160Y-134807438D01*
X223539160Y-134807438D02*
X223586779Y-134855057D01*
X223586779Y-134855057D02*
X223634398Y-134807438D01*
X223634398Y-134807438D02*
X223586779Y-134759819D01*
X223586779Y-134759819D02*
X223586779Y-134855057D01*
X224015350Y-135712200D02*
X224110588Y-135759819D01*
X224110588Y-135759819D02*
X224301064Y-135759819D01*
X224301064Y-135759819D02*
X224396302Y-135712200D01*
X224396302Y-135712200D02*
X224443921Y-135616961D01*
X224443921Y-135616961D02*
X224443921Y-135569342D01*
X224443921Y-135569342D02*
X224396302Y-135474104D01*
X224396302Y-135474104D02*
X224301064Y-135426485D01*
X224301064Y-135426485D02*
X224158207Y-135426485D01*
X224158207Y-135426485D02*
X224062969Y-135378866D01*
X224062969Y-135378866D02*
X224015350Y-135283628D01*
X224015350Y-135283628D02*
X224015350Y-135236009D01*
X224015350Y-135236009D02*
X224062969Y-135140771D01*
X224062969Y-135140771D02*
X224158207Y-135093152D01*
X224158207Y-135093152D02*
X224301064Y-135093152D01*
X224301064Y-135093152D02*
X224396302Y-135140771D01*
X224872493Y-135093152D02*
X224872493Y-136093152D01*
X224872493Y-135140771D02*
X224967731Y-135093152D01*
X224967731Y-135093152D02*
X225158207Y-135093152D01*
X225158207Y-135093152D02*
X225253445Y-135140771D01*
X225253445Y-135140771D02*
X225301064Y-135188390D01*
X225301064Y-135188390D02*
X225348683Y-135283628D01*
X225348683Y-135283628D02*
X225348683Y-135569342D01*
X225348683Y-135569342D02*
X225301064Y-135664580D01*
X225301064Y-135664580D02*
X225253445Y-135712200D01*
X225253445Y-135712200D02*
X225158207Y-135759819D01*
X225158207Y-135759819D02*
X224967731Y-135759819D01*
X224967731Y-135759819D02*
X224872493Y-135712200D01*
X225920112Y-135759819D02*
X225824874Y-135712200D01*
X225824874Y-135712200D02*
X225777255Y-135616961D01*
X225777255Y-135616961D02*
X225777255Y-134759819D01*
X226729636Y-135759819D02*
X226729636Y-135236009D01*
X226729636Y-135236009D02*
X226682017Y-135140771D01*
X226682017Y-135140771D02*
X226586779Y-135093152D01*
X226586779Y-135093152D02*
X226396303Y-135093152D01*
X226396303Y-135093152D02*
X226301065Y-135140771D01*
X226729636Y-135712200D02*
X226634398Y-135759819D01*
X226634398Y-135759819D02*
X226396303Y-135759819D01*
X226396303Y-135759819D02*
X226301065Y-135712200D01*
X226301065Y-135712200D02*
X226253446Y-135616961D01*
X226253446Y-135616961D02*
X226253446Y-135521723D01*
X226253446Y-135521723D02*
X226301065Y-135426485D01*
X226301065Y-135426485D02*
X226396303Y-135378866D01*
X226396303Y-135378866D02*
X226634398Y-135378866D01*
X226634398Y-135378866D02*
X226729636Y-135331247D01*
X227110589Y-135093152D02*
X227348684Y-135759819D01*
X227586779Y-135093152D02*
X227348684Y-135759819D01*
X227348684Y-135759819D02*
X227253446Y-135997914D01*
X227253446Y-135997914D02*
X227205827Y-136045533D01*
X227205827Y-136045533D02*
X227110589Y-136093152D01*
X228729637Y-135759819D02*
X228729637Y-134759819D01*
X228729637Y-134759819D02*
X229110589Y-134759819D01*
X229110589Y-134759819D02*
X229205827Y-134807438D01*
X229205827Y-134807438D02*
X229253446Y-134855057D01*
X229253446Y-134855057D02*
X229301065Y-134950295D01*
X229301065Y-134950295D02*
X229301065Y-135093152D01*
X229301065Y-135093152D02*
X229253446Y-135188390D01*
X229253446Y-135188390D02*
X229205827Y-135236009D01*
X229205827Y-135236009D02*
X229110589Y-135283628D01*
X229110589Y-135283628D02*
X228729637Y-135283628D01*
X230301065Y-135664580D02*
X230253446Y-135712200D01*
X230253446Y-135712200D02*
X230110589Y-135759819D01*
X230110589Y-135759819D02*
X230015351Y-135759819D01*
X230015351Y-135759819D02*
X229872494Y-135712200D01*
X229872494Y-135712200D02*
X229777256Y-135616961D01*
X229777256Y-135616961D02*
X229729637Y-135521723D01*
X229729637Y-135521723D02*
X229682018Y-135331247D01*
X229682018Y-135331247D02*
X229682018Y-135188390D01*
X229682018Y-135188390D02*
X229729637Y-134997914D01*
X229729637Y-134997914D02*
X229777256Y-134902676D01*
X229777256Y-134902676D02*
X229872494Y-134807438D01*
X229872494Y-134807438D02*
X230015351Y-134759819D01*
X230015351Y-134759819D02*
X230110589Y-134759819D01*
X230110589Y-134759819D02*
X230253446Y-134807438D01*
X230253446Y-134807438D02*
X230301065Y-134855057D01*
X231062970Y-135236009D02*
X231205827Y-135283628D01*
X231205827Y-135283628D02*
X231253446Y-135331247D01*
X231253446Y-135331247D02*
X231301065Y-135426485D01*
X231301065Y-135426485D02*
X231301065Y-135569342D01*
X231301065Y-135569342D02*
X231253446Y-135664580D01*
X231253446Y-135664580D02*
X231205827Y-135712200D01*
X231205827Y-135712200D02*
X231110589Y-135759819D01*
X231110589Y-135759819D02*
X230729637Y-135759819D01*
X230729637Y-135759819D02*
X230729637Y-134759819D01*
X230729637Y-134759819D02*
X231062970Y-134759819D01*
X231062970Y-134759819D02*
X231158208Y-134807438D01*
X231158208Y-134807438D02*
X231205827Y-134855057D01*
X231205827Y-134855057D02*
X231253446Y-134950295D01*
X231253446Y-134950295D02*
X231253446Y-135045533D01*
X231253446Y-135045533D02*
X231205827Y-135140771D01*
X231205827Y-135140771D02*
X231158208Y-135188390D01*
X231158208Y-135188390D02*
X231062970Y-135236009D01*
X231062970Y-135236009D02*
X230729637Y-135236009D01*
X232348685Y-134759819D02*
X232682018Y-135759819D01*
X232682018Y-135759819D02*
X233015351Y-134759819D01*
X233253447Y-134759819D02*
X233872494Y-134759819D01*
X233872494Y-134759819D02*
X233539161Y-135140771D01*
X233539161Y-135140771D02*
X233682018Y-135140771D01*
X233682018Y-135140771D02*
X233777256Y-135188390D01*
X233777256Y-135188390D02*
X233824875Y-135236009D01*
X233824875Y-135236009D02*
X233872494Y-135331247D01*
X233872494Y-135331247D02*
X233872494Y-135569342D01*
X233872494Y-135569342D02*
X233824875Y-135664580D01*
X233824875Y-135664580D02*
X233777256Y-135712200D01*
X233777256Y-135712200D02*
X233682018Y-135759819D01*
X233682018Y-135759819D02*
X233396304Y-135759819D01*
X233396304Y-135759819D02*
X233301066Y-135712200D01*
X233301066Y-135712200D02*
X233253447Y-135664580D01*
X234301066Y-135664580D02*
X234348685Y-135712200D01*
X234348685Y-135712200D02*
X234301066Y-135759819D01*
X234301066Y-135759819D02*
X234253447Y-135712200D01*
X234253447Y-135712200D02*
X234301066Y-135664580D01*
X234301066Y-135664580D02*
X234301066Y-135759819D01*
X234967732Y-134759819D02*
X235062970Y-134759819D01*
X235062970Y-134759819D02*
X235158208Y-134807438D01*
X235158208Y-134807438D02*
X235205827Y-134855057D01*
X235205827Y-134855057D02*
X235253446Y-134950295D01*
X235253446Y-134950295D02*
X235301065Y-135140771D01*
X235301065Y-135140771D02*
X235301065Y-135378866D01*
X235301065Y-135378866D02*
X235253446Y-135569342D01*
X235253446Y-135569342D02*
X235205827Y-135664580D01*
X235205827Y-135664580D02*
X235158208Y-135712200D01*
X235158208Y-135712200D02*
X235062970Y-135759819D01*
X235062970Y-135759819D02*
X234967732Y-135759819D01*
X234967732Y-135759819D02*
X234872494Y-135712200D01*
X234872494Y-135712200D02*
X234824875Y-135664580D01*
X234824875Y-135664580D02*
X234777256Y-135569342D01*
X234777256Y-135569342D02*
X234729637Y-135378866D01*
X234729637Y-135378866D02*
X234729637Y-135140771D01*
X234729637Y-135140771D02*
X234777256Y-134950295D01*
X234777256Y-134950295D02*
X234824875Y-134855057D01*
X234824875Y-134855057D02*
X234872494Y-134807438D01*
X234872494Y-134807438D02*
X234967732Y-134759819D01*
X238696667Y-138577200D02*
X238839524Y-138624819D01*
X238839524Y-138624819D02*
X239077619Y-138624819D01*
X239077619Y-138624819D02*
X239172857Y-138577200D01*
X239172857Y-138577200D02*
X239220476Y-138529580D01*
X239220476Y-138529580D02*
X239268095Y-138434342D01*
X239268095Y-138434342D02*
X239268095Y-138339104D01*
X239268095Y-138339104D02*
X239220476Y-138243866D01*
X239220476Y-138243866D02*
X239172857Y-138196247D01*
X239172857Y-138196247D02*
X239077619Y-138148628D01*
X239077619Y-138148628D02*
X238887143Y-138101009D01*
X238887143Y-138101009D02*
X238791905Y-138053390D01*
X238791905Y-138053390D02*
X238744286Y-138005771D01*
X238744286Y-138005771D02*
X238696667Y-137910533D01*
X238696667Y-137910533D02*
X238696667Y-137815295D01*
X238696667Y-137815295D02*
X238744286Y-137720057D01*
X238744286Y-137720057D02*
X238791905Y-137672438D01*
X238791905Y-137672438D02*
X238887143Y-137624819D01*
X238887143Y-137624819D02*
X239125238Y-137624819D01*
X239125238Y-137624819D02*
X239268095Y-137672438D01*
X239601429Y-137624819D02*
X239839524Y-138624819D01*
X239839524Y-138624819D02*
X240030000Y-137910533D01*
X240030000Y-137910533D02*
X240220476Y-138624819D01*
X240220476Y-138624819D02*
X240458572Y-137624819D01*
X241363333Y-138624819D02*
X240791905Y-138624819D01*
X241077619Y-138624819D02*
X241077619Y-137624819D01*
X241077619Y-137624819D02*
X240982381Y-137767676D01*
X240982381Y-137767676D02*
X240887143Y-137862914D01*
X240887143Y-137862914D02*
X240791905Y-137910533D01*
X221083333Y-106754819D02*
X220750000Y-106278628D01*
X220511905Y-106754819D02*
X220511905Y-105754819D01*
X220511905Y-105754819D02*
X220892857Y-105754819D01*
X220892857Y-105754819D02*
X220988095Y-105802438D01*
X220988095Y-105802438D02*
X221035714Y-105850057D01*
X221035714Y-105850057D02*
X221083333Y-105945295D01*
X221083333Y-105945295D02*
X221083333Y-106088152D01*
X221083333Y-106088152D02*
X221035714Y-106183390D01*
X221035714Y-106183390D02*
X220988095Y-106231009D01*
X220988095Y-106231009D02*
X220892857Y-106278628D01*
X220892857Y-106278628D02*
X220511905Y-106278628D01*
X222035714Y-106754819D02*
X221464286Y-106754819D01*
X221750000Y-106754819D02*
X221750000Y-105754819D01*
X221750000Y-105754819D02*
X221654762Y-105897676D01*
X221654762Y-105897676D02*
X221559524Y-105992914D01*
X221559524Y-105992914D02*
X221464286Y-106040533D01*
X216003333Y-101674819D02*
X215670000Y-101198628D01*
X215431905Y-101674819D02*
X215431905Y-100674819D01*
X215431905Y-100674819D02*
X215812857Y-100674819D01*
X215812857Y-100674819D02*
X215908095Y-100722438D01*
X215908095Y-100722438D02*
X215955714Y-100770057D01*
X215955714Y-100770057D02*
X216003333Y-100865295D01*
X216003333Y-100865295D02*
X216003333Y-101008152D01*
X216003333Y-101008152D02*
X215955714Y-101103390D01*
X215955714Y-101103390D02*
X215908095Y-101151009D01*
X215908095Y-101151009D02*
X215812857Y-101198628D01*
X215812857Y-101198628D02*
X215431905Y-101198628D01*
X216336667Y-100674819D02*
X216955714Y-100674819D01*
X216955714Y-100674819D02*
X216622381Y-101055771D01*
X216622381Y-101055771D02*
X216765238Y-101055771D01*
X216765238Y-101055771D02*
X216860476Y-101103390D01*
X216860476Y-101103390D02*
X216908095Y-101151009D01*
X216908095Y-101151009D02*
X216955714Y-101246247D01*
X216955714Y-101246247D02*
X216955714Y-101484342D01*
X216955714Y-101484342D02*
X216908095Y-101579580D01*
X216908095Y-101579580D02*
X216860476Y-101627200D01*
X216860476Y-101627200D02*
X216765238Y-101674819D01*
X216765238Y-101674819D02*
X216479524Y-101674819D01*
X216479524Y-101674819D02*
X216384286Y-101627200D01*
X216384286Y-101627200D02*
X216336667Y-101579580D01*
X210923333Y-96594819D02*
X210590000Y-96118628D01*
X210351905Y-96594819D02*
X210351905Y-95594819D01*
X210351905Y-95594819D02*
X210732857Y-95594819D01*
X210732857Y-95594819D02*
X210828095Y-95642438D01*
X210828095Y-95642438D02*
X210875714Y-95690057D01*
X210875714Y-95690057D02*
X210923333Y-95785295D01*
X210923333Y-95785295D02*
X210923333Y-95928152D01*
X210923333Y-95928152D02*
X210875714Y-96023390D01*
X210875714Y-96023390D02*
X210828095Y-96071009D01*
X210828095Y-96071009D02*
X210732857Y-96118628D01*
X210732857Y-96118628D02*
X210351905Y-96118628D01*
X211304286Y-95690057D02*
X211351905Y-95642438D01*
X211351905Y-95642438D02*
X211447143Y-95594819D01*
X211447143Y-95594819D02*
X211685238Y-95594819D01*
X211685238Y-95594819D02*
X211780476Y-95642438D01*
X211780476Y-95642438D02*
X211828095Y-95690057D01*
X211828095Y-95690057D02*
X211875714Y-95785295D01*
X211875714Y-95785295D02*
X211875714Y-95880533D01*
X211875714Y-95880533D02*
X211828095Y-96023390D01*
X211828095Y-96023390D02*
X211256667Y-96594819D01*
X211256667Y-96594819D02*
X211875714Y-96594819D01*
X186078905Y-111602819D02*
X186078905Y-110602819D01*
X186078905Y-110602819D02*
X186317000Y-110602819D01*
X186317000Y-110602819D02*
X186459857Y-110650438D01*
X186459857Y-110650438D02*
X186555095Y-110745676D01*
X186555095Y-110745676D02*
X186602714Y-110840914D01*
X186602714Y-110840914D02*
X186650333Y-111031390D01*
X186650333Y-111031390D02*
X186650333Y-111174247D01*
X186650333Y-111174247D02*
X186602714Y-111364723D01*
X186602714Y-111364723D02*
X186555095Y-111459961D01*
X186555095Y-111459961D02*
X186459857Y-111555200D01*
X186459857Y-111555200D02*
X186317000Y-111602819D01*
X186317000Y-111602819D02*
X186078905Y-111602819D01*
X187602714Y-111602819D02*
X187031286Y-111602819D01*
X187317000Y-111602819D02*
X187317000Y-110602819D01*
X187317000Y-110602819D02*
X187221762Y-110745676D01*
X187221762Y-110745676D02*
X187126524Y-110840914D01*
X187126524Y-110840914D02*
X187031286Y-110888533D01*
X179181009Y-139255714D02*
X179228628Y-139112857D01*
X179228628Y-139112857D02*
X179276247Y-139065238D01*
X179276247Y-139065238D02*
X179371485Y-139017619D01*
X179371485Y-139017619D02*
X179514342Y-139017619D01*
X179514342Y-139017619D02*
X179609580Y-139065238D01*
X179609580Y-139065238D02*
X179657200Y-139112857D01*
X179657200Y-139112857D02*
X179704819Y-139208095D01*
X179704819Y-139208095D02*
X179704819Y-139589047D01*
X179704819Y-139589047D02*
X178704819Y-139589047D01*
X178704819Y-139589047D02*
X178704819Y-139255714D01*
X178704819Y-139255714D02*
X178752438Y-139160476D01*
X178752438Y-139160476D02*
X178800057Y-139112857D01*
X178800057Y-139112857D02*
X178895295Y-139065238D01*
X178895295Y-139065238D02*
X178990533Y-139065238D01*
X178990533Y-139065238D02*
X179085771Y-139112857D01*
X179085771Y-139112857D02*
X179133390Y-139160476D01*
X179133390Y-139160476D02*
X179181009Y-139255714D01*
X179181009Y-139255714D02*
X179181009Y-139589047D01*
X178704819Y-138731904D02*
X178704819Y-138160476D01*
X179704819Y-138446190D02*
X178704819Y-138446190D01*
X179704819Y-137303333D02*
X179704819Y-137874761D01*
X179704819Y-137589047D02*
X178704819Y-137589047D01*
X178704819Y-137589047D02*
X178847676Y-137684285D01*
X178847676Y-137684285D02*
X178942914Y-137779523D01*
X178942914Y-137779523D02*
X178990533Y-137874761D01*
D11*
%TO.C,SW1*%
X235420000Y-139760000D02*
X244640000Y-139760000D01*
X245140000Y-143280000D02*
X245140000Y-139260000D01*
X234920000Y-140970000D02*
X235420000Y-140970000D01*
X234920000Y-139260000D02*
X234920000Y-143280000D01*
X235920000Y-141780000D02*
X235920000Y-143280000D01*
X234920000Y-141780000D02*
X235920000Y-141780000D01*
X245140000Y-139260000D02*
X234920000Y-139260000D01*
X234620000Y-143580000D02*
X237120000Y-143580000D01*
X235420000Y-140970000D02*
X235420000Y-139760000D01*
X245140000Y-141780000D02*
X244140000Y-141780000D01*
X234620000Y-141080000D02*
X234620000Y-143580000D01*
X244640000Y-139760000D02*
X244640000Y-140970000D01*
X244140000Y-141780000D02*
X244140000Y-143280000D01*
X244640000Y-140970000D02*
X245140000Y-140970000D01*
X234920000Y-143280000D02*
X245140000Y-143280000D01*
%TO.C,R1*%
X221022936Y-107215000D02*
X221477064Y-107215000D01*
X221022936Y-108685000D02*
X221477064Y-108685000D01*
%TO.C,R3*%
X215942936Y-103605000D02*
X216397064Y-103605000D01*
X215942936Y-102135000D02*
X216397064Y-102135000D01*
%TO.C,R2*%
X210862936Y-98525000D02*
X211317064Y-98525000D01*
X210862936Y-97055000D02*
X211317064Y-97055000D01*
%TO.C,D1*%
X189376999Y-105643170D02*
G75*
G03*
X184425666Y-105393113I-2559999J-1544830D01*
G01*
X183840165Y-107446216D02*
G75*
G03*
X189202000Y-108988000I2976835J258216D01*
G01*
X189071684Y-106108000D02*
G75*
G03*
X184857914Y-105634944I-2254684J-1080000D01*
G01*
X184336910Y-107474421D02*
G75*
G03*
X188569599Y-108965999I2480090J286421D01*
G01*
X189377000Y-106888812D02*
X189377000Y-105643000D01*
%TO.C,BT1*%
X183850000Y-144380000D02*
X184150000Y-143780000D01*
X184450000Y-144380000D02*
X183850000Y-144380000D01*
X184150000Y-143780000D02*
X184450000Y-144380000D01*
X180340000Y-143580000D02*
X189060000Y-143580000D01*
X189060000Y-143580000D02*
X189060000Y-133360000D01*
X180340000Y-133360000D02*
X180340000Y-143580000D01*
X189060000Y-133360000D02*
X180340000Y-133360000D01*
%TD*%
M02*
